<?xml version="1.0" encoding="UTF-8" standalone="no"?>
<svg width="258px" height="257px" viewBox="0 0 258 257" version="1.1" xmlns="http://www.w3.org/2000/svg" xmlns:xlink="http://www.w3.org/1999/xlink" xmlns:sketch="http://www.bohemiancoding.com/sketch/ns">
    <!-- Generator: Sketch 3.3.3 (12072) - http://www.bohemiancoding.com/sketch -->
    <title>chrome icon</title>
    <desc>Created with Sketch.</desc>
    <defs>
        <linearGradient x1="50%" y1="11.8055556%" x2="50%" y2="87.5%" id="linearGradient-1">
            <stop stop-color="#F6F0EE" offset="0%"></stop>
            <stop stop-color="#DDDDDD" offset="100%"></stop>
        </linearGradient>
        <linearGradient x1="50%" y1="0%" x2="50%" y2="100%" id="linearGradient-2">
            <stop stop-color="#F06B59" offset="0%"></stop>
            <stop stop-color="#DF2227" offset="100%"></stop>
        </linearGradient>
        <path id="path-3" d="M218.848214,71.12 C187.631161,8.58858667 111.406214,-16.9084978 48.5967768,14.1709422 C29.0115625,23.8613244 12.2725089,38.4228622 0,56.4444444 L51.0267857,144.497778 C41.6299196,114.760587 58.2260982,83.0715467 88.0960446,73.7164444 C93.3484018,72.0705244 98.8150714,71.1967644 104.321429,71.12 L218.848214,71.12 L218.848214,71.12 Z"></path>
        <linearGradient x1="50%" y1="0%" x2="50%" y2="100%" id="linearGradient-5">
            <stop stop-color="#000000" stop-opacity="0.03" offset="0%"></stop>
            <stop stop-color="#B2B2B2" stop-opacity="0.06" offset="71.4265784%"></stop>
            <stop stop-color="#000000" stop-opacity="0.15" offset="100%"></stop>
        </linearGradient>
        <linearGradient x1="50%" y1="44.2528736%" x2="25.6356188%" y2="85.0574713%" id="linearGradient-6">
            <stop stop-color="#4CB749" offset="0%"></stop>
            <stop stop-color="#388B41" offset="100%"></stop>
        </linearGradient>
        <path id="path-7" d="M21.5446429,0 L72.5714286,88.0533333 C75.9357946,98.0970578 82.0714821,106.996089 90.2743214,113.734427 C114.428134,133.57352 150.162759,130.162018 170.089286,106.115556 L116.794643,196.426667 C95.1638214,194.684791 74.342625,187.454258 56.3176964,175.423689 C20.7974555,151.718235 1.14639227,113.271964 0.0680357143,73.7263793 L0.0680357143,66.8490482 C0.697752203,43.7730543 7.67866512,20.5921017 21.5446429,0 Z"></path>
        <linearGradient x1="-14.0019531%" y1="77.8063965%" x2="124.498047%" y2="0%" id="linearGradient-9">
            <stop stop-color="#000000" stop-opacity="0.03" offset="0%"></stop>
            <stop stop-color="#373737" stop-opacity="0.06" offset="78.5694356%"></stop>
            <stop stop-color="#000000" stop-opacity="0.15" offset="100%"></stop>
        </linearGradient>
        <linearGradient x1="31.1334676%" y1="12.7073483%" x2="67.250171%" y2="84.9222791%" id="linearGradient-10">
            <stop stop-color="#FCD209" offset="0%"></stop>
            <stop stop-color="#E4B022" offset="100%"></stop>
        </linearGradient>
        <path id="path-11" d="M0,181.751111 C69.9407143,187.01512 130.925661,134.836747 136.212036,65.20688 C137.918598,42.7408622 133.563179,20.22856 123.598214,0 L9.07142857,0 C40.3837321,0.143368889 65.6510625,25.5298222 65.5070536,56.70296 C65.4492232,69.3149067 61.1493661,81.54416 53.2946429,91.44 L0,181.751111 L0,181.751111 Z"></path>
        <linearGradient x1="45.1923077%" y1="-72.3684211%" x2="50%" y2="100%" id="linearGradient-13">
            <stop stop-color="#000000" stop-opacity="0.15" offset="0%"></stop>
            <stop stop-color="#000000" stop-opacity="0.06" offset="16.3245376%"></stop>
            <stop stop-color="#000000" stop-opacity="0.03" offset="100%"></stop>
        </linearGradient>
        <linearGradient x1="50%" y1="0%" x2="50%" y2="100%" id="linearGradient-14">
            <stop stop-color="#81B4E0" offset="0%"></stop>
            <stop stop-color="#0C5A94" offset="100%"></stop>
        </linearGradient>
        <path id="path-15" d="M48.563353,0.045155317 C73.2783704,1.12438137 92.9821429,21.4132202 92.9821429,46.2844444 C92.9821429,71.8470044 72.16775,92.5688889 46.4910714,92.5688889 C21.6655535,92.5688889 1.38530287,73.1980605 0.0680357143,48.8100414 L0.0680357143,43.7588475 C1.34845613,20.0530127 20.5458282,1.08761148 44.4187899,0.045155317 L48.5633584,0.0451555556 L48.563353,0.045155317 Z"></path>
    </defs>
    <g id="Page-1" stroke="none" stroke-width="1" fill="none" fill-rule="evenodd" sketch:type="MSPage">
        <g id="Chrome-Icon" sketch:type="MSArtboardGroup" transform="translate(-179.000000, -79.000000)">
            <g id="chrome-icon" sketch:type="MSLayerGroup" transform="translate(181.000000, 79.000000)">
                <circle id="bg" fill="url(#linearGradient-1)" sketch:type="MSShapeGroup" cx="127" cy="127" r="81.6428571"></circle>
                <g id="rim">
                    <g id="top" transform="translate(21.544643, 0.000000)">
                        <mask id="mask-4" sketch:name="red" fill="white">
                            <use xlink:href="#path-3"></use>
                        </mask>
                        <use id="red" fill="url(#linearGradient-2)" sketch:type="MSShapeGroup" xlink:href="#path-3"></use>
                        <path d="M0,56.4444444 L51.0267857,144.497778 C47.2474018,131.833902 48.0502232,118.251111 53.2946429,106.115556 L2.26785714,53.0577778" id="shadow" fill="url(#linearGradient-5)" sketch:type="MSShapeGroup" mask="url(#mask-4)"></path>
                    </g>
                    <g id="left" transform="translate(0.000000, 56.444444)">
                        <mask id="mask-8" sketch:name="green" fill="white">
                            <use xlink:href="#path-7"></use>
                        </mask>
                        <use id="green" fill="url(#linearGradient-6)" sketch:type="MSShapeGroup" xlink:href="#path-7"></use>
                        <path d="M116.794643,196.426667 L170.089286,106.115556 C161.681205,116.099449 150.062973,122.879556 137.205357,125.306667 L114.526786,196.426667" id="shadow" fill="url(#linearGradient-9)" sketch:type="MSShapeGroup" mask="url(#mask-8)"></path>
                    </g>
                    <g id="right" transform="translate(116.794643, 71.120000)">
                        <mask id="mask-12" sketch:name="yellow" fill="white">
                            <use xlink:href="#path-11"></use>
                        </mask>
                        <use id="yellow" fill="url(#linearGradient-10)" sketch:type="MSShapeGroup" xlink:href="#path-11"></use>
                        <path d="M123.598214,0 L9.07142857,0 C26.3230179,0.0790222222 42.5994286,7.97334222 53.2946429,21.4488889 L125.866071,3.38666667" id="shadow" fill="url(#linearGradient-13)" sketch:type="MSShapeGroup" mask="url(#mask-12)"></path>
                    </g>
                </g>
                <g id="center" transform="translate(80.508929, 80.715556)">
                    <mask id="mask-16" sketch:name="Clip 2" fill="white">
                        <use xlink:href="#path-15"></use>
                    </mask>
                    <use id="Clip-2" fill="url(#linearGradient-14)" sketch:type="MSShapeGroup" xlink:href="#path-15"></use>
                </g>
            </g>
        </g>
    </g>
</svg>